# Wavefront OBJ file automatically generated by Tiled2Unity

# Vertices (Count = 441)
v 0 -32 0
v -32 -32 0
v -32 0 0
v 0 0 0
v -64 -32 0
v -64 0 0
v -96 -32 0
v -96 0 0
v -128 -32 0
v -128 0 0
v -160 -32 0
v -160 0 0
v -192 -32 0
v -192 0 0
v -224 -32 0
v -224 0 0
v -256 -32 0
v -256 0 0
v -288 -32 0
v -288 0 0
v -320 -32 0
v -320 0 0
v -352 -32 0
v -352 0 0
v -384 -32 0
v -384 0 0
v -416 -32 0
v -416 0 0
v -448 -32 0
v -448 0 0
v -480 -32 0
v -480 0 0
v -512 -32 0
v -512 0 0
v -544 -32 0
v -544 0 0
v -576 -32 0
v -576 0 0
v -608 -32 0
v -608 0 0
v -640 -32 0
v -640 0 0
v 0 -64 0
v -32 -64 0
v -64 -64 0
v -96 -64 0
v -128 -64 0
v -160 -64 0
v -192 -64 0
v -224 -64 0
v -256 -64 0
v -288 -64 0
v -320 -64 0
v -352 -64 0
v -384 -64 0
v -416 -64 0
v -448 -64 0
v -480 -64 0
v -512 -64 0
v -544 -64 0
v -576 -64 0
v -608 -64 0
v -640 -64 0
v 0 -96 0
v -32 -96 0
v -64 -96 0
v -96 -96 0
v -128 -96 0
v -160 -96 0
v -192 -96 0
v -224 -96 0
v -256 -96 0
v -288 -96 0
v -320 -96 0
v -352 -96 0
v -384 -96 0
v -416 -96 0
v -448 -96 0
v -480 -96 0
v -512 -96 0
v -544 -96 0
v -576 -96 0
v -608 -96 0
v -640 -96 0
v 0 -128 0
v -32 -128 0
v -64 -128 0
v -96 -128 0
v -128 -128 0
v -160 -128 0
v -192 -128 0
v -224 -128 0
v -256 -128 0
v -288 -128 0
v -320 -128 0
v -352 -128 0
v -384 -128 0
v -416 -128 0
v -448 -128 0
v -480 -128 0
v -512 -128 0
v -544 -128 0
v -576 -128 0
v -608 -128 0
v -640 -128 0
v 0 -160 0
v -32 -160 0
v -64 -160 0
v -96 -160 0
v -128 -160 0
v -160 -160 0
v -192 -160 0
v -224 -160 0
v -256 -160 0
v -288 -160 0
v -320 -160 0
v -352 -160 0
v -384 -160 0
v -416 -160 0
v -448 -160 0
v -480 -160 0
v -512 -160 0
v -544 -160 0
v -576 -160 0
v -608 -160 0
v -640 -160 0
v 0 -192 0
v -32 -192 0
v -64 -192 0
v -96 -192 0
v -128 -192 0
v -160 -192 0
v -192 -192 0
v -224 -192 0
v -256 -192 0
v -288 -192 0
v -320 -192 0
v -352 -192 0
v -384 -192 0
v -416 -192 0
v -448 -192 0
v -480 -192 0
v -512 -192 0
v -544 -192 0
v -576 -192 0
v -608 -192 0
v -640 -192 0
v 0 -224 0
v -32 -224 0
v -64 -224 0
v -96 -224 0
v -128 -224 0
v -160 -224 0
v -192 -224 0
v -224 -224 0
v -256 -224 0
v -288 -224 0
v -320 -224 0
v -352 -224 0
v -384 -224 0
v -416 -224 0
v -448 -224 0
v -480 -224 0
v -512 -224 0
v -544 -224 0
v -576 -224 0
v -608 -224 0
v -640 -224 0
v 0 -256 0
v -32 -256 0
v -64 -256 0
v -96 -256 0
v -128 -256 0
v -160 -256 0
v -192 -256 0
v -224 -256 0
v -256 -256 0
v -288 -256 0
v -320 -256 0
v -352 -256 0
v -384 -256 0
v -416 -256 0
v -448 -256 0
v -480 -256 0
v -512 -256 0
v -544 -256 0
v -576 -256 0
v -608 -256 0
v -640 -256 0
v 0 -288 0
v -32 -288 0
v -64 -288 0
v -96 -288 0
v -128 -288 0
v -160 -288 0
v -192 -288 0
v -224 -288 0
v -256 -288 0
v -288 -288 0
v -320 -288 0
v -352 -288 0
v -384 -288 0
v -416 -288 0
v -448 -288 0
v -480 -288 0
v -512 -288 0
v -544 -288 0
v -576 -288 0
v -608 -288 0
v -640 -288 0
v 0 -320 0
v -32 -320 0
v -64 -320 0
v -96 -320 0
v -128 -320 0
v -160 -320 0
v -192 -320 0
v -224 -320 0
v -256 -320 0
v -288 -320 0
v -320 -320 0
v -352 -320 0
v -384 -320 0
v -416 -320 0
v -448 -320 0
v -480 -320 0
v -512 -320 0
v -544 -320 0
v -576 -320 0
v -608 -320 0
v -640 -320 0
v 0 -352 0
v -32 -352 0
v -64 -352 0
v -96 -352 0
v -128 -352 0
v -160 -352 0
v -192 -352 0
v -224 -352 0
v -256 -352 0
v -288 -352 0
v -320 -352 0
v -352 -352 0
v -384 -352 0
v -416 -352 0
v -448 -352 0
v -480 -352 0
v -512 -352 0
v -544 -352 0
v -576 -352 0
v -608 -352 0
v -640 -352 0
v 0 -384 0
v -32 -384 0
v -64 -384 0
v -96 -384 0
v -128 -384 0
v -160 -384 0
v -192 -384 0
v -224 -384 0
v -256 -384 0
v -288 -384 0
v -320 -384 0
v -352 -384 0
v -384 -384 0
v -416 -384 0
v -448 -384 0
v -480 -384 0
v -512 -384 0
v -544 -384 0
v -576 -384 0
v -608 -384 0
v -640 -384 0
v 0 -416 0
v -32 -416 0
v -64 -416 0
v -96 -416 0
v -128 -416 0
v -160 -416 0
v -192 -416 0
v -224 -416 0
v -256 -416 0
v -288 -416 0
v -320 -416 0
v -352 -416 0
v -384 -416 0
v -416 -416 0
v -448 -416 0
v -480 -416 0
v -512 -416 0
v -544 -416 0
v -576 -416 0
v -608 -416 0
v -640 -416 0
v 0 -448 0
v -32 -448 0
v -64 -448 0
v -96 -448 0
v -128 -448 0
v -160 -448 0
v -192 -448 0
v -224 -448 0
v -256 -448 0
v -288 -448 0
v -320 -448 0
v -352 -448 0
v -384 -448 0
v -416 -448 0
v -448 -448 0
v -480 -448 0
v -512 -448 0
v -544 -448 0
v -576 -448 0
v -608 -448 0
v -640 -448 0
v 0 -480 0
v -32 -480 0
v -64 -480 0
v -96 -480 0
v -128 -480 0
v -160 -480 0
v -192 -480 0
v -224 -480 0
v -256 -480 0
v -288 -480 0
v -320 -480 0
v -352 -480 0
v -384 -480 0
v -416 -480 0
v -448 -480 0
v -480 -480 0
v -512 -480 0
v -544 -480 0
v -576 -480 0
v -608 -480 0
v -640 -480 0
v 0 -512 0
v -32 -512 0
v -64 -512 0
v -96 -512 0
v -128 -512 0
v -160 -512 0
v -192 -512 0
v -224 -512 0
v -256 -512 0
v -288 -512 0
v -320 -512 0
v -352 -512 0
v -384 -512 0
v -416 -512 0
v -448 -512 0
v -480 -512 0
v -512 -512 0
v -544 -512 0
v -576 -512 0
v -608 -512 0
v -640 -512 0
v 0 -544 0
v -32 -544 0
v -64 -544 0
v -96 -544 0
v -128 -544 0
v -160 -544 0
v -192 -544 0
v -224 -544 0
v -256 -544 0
v -288 -544 0
v -320 -544 0
v -352 -544 0
v -384 -544 0
v -416 -544 0
v -448 -544 0
v -480 -544 0
v -512 -544 0
v -544 -544 0
v -576 -544 0
v -608 -544 0
v -640 -544 0
v 0 -576 0
v -32 -576 0
v -64 -576 0
v -96 -576 0
v -128 -576 0
v -160 -576 0
v -192 -576 0
v -224 -576 0
v -256 -576 0
v -288 -576 0
v -320 -576 0
v -352 -576 0
v -384 -576 0
v -416 -576 0
v -448 -576 0
v -480 -576 0
v -512 -576 0
v -544 -576 0
v -576 -576 0
v -608 -576 0
v -640 -576 0
v 0 -608 0
v -32 -608 0
v -64 -608 0
v -96 -608 0
v -128 -608 0
v -160 -608 0
v -192 -608 0
v -224 -608 0
v -256 -608 0
v -288 -608 0
v -320 -608 0
v -352 -608 0
v -384 -608 0
v -416 -608 0
v -448 -608 0
v -480 -608 0
v -512 -608 0
v -544 -608 0
v -576 -608 0
v -608 -608 0
v -640 -608 0
v 0 -640 0
v -32 -640 0
v -64 -640 0
v -96 -640 0
v -128 -640 0
v -160 -640 0
v -192 -640 0
v -224 -640 0
v -256 -640 0
v -288 -640 0
v -320 -640 0
v -352 -640 0
v -384 -640 0
v -416 -640 0
v -448 -640 0
v -480 -640 0
v -512 -640 0
v -544 -640 0
v -576 -640 0
v -608 -640 0
v -640 -640 0

# Texture cooridinates (Count = 52)
vt 0.09536017 0.4783829
vt 0.1427351 0.4783829
vt 0.1427351 0.5216171
vt 0.09536017 0.5216171
vt 0.04774112 0.4783829
vt 0.09511603 0.4783829
vt 0.09511603 0.5216171
vt 0.04774112 0.5216171
vt 0.0001220703 0.4783829
vt 0.04749698 0.4783829
vt 0.04749698 0.5216171
vt 0.0001220703 0.5216171
vt 0.904884 0.9566438
vt 0.9522589 0.9566438
vt 0.9522589 0.9998779
vt 0.904884 0.9998779
vt 0.904884 0.7827308
vt 0.9522589 0.7827308
vt 0.9522589 0.8259649
vt 0.904884 0.8259649
vt 0.952503 0.9566438
vt 0.9998779 0.9566438
vt 0.9998779 0.9998779
vt 0.952503 0.9998779
vt 0.952503 0.826209
vt 0.9998779 0.826209
vt 0.9998779 0.8694431
vt 0.952503 0.8694431
vt 0.8572649 0.826209
vt 0.9046398 0.826209
vt 0.9046398 0.8694431
vt 0.8572649 0.8694431
vt 0.904884 0.9131656
vt 0.9522589 0.9131656
vt 0.9522589 0.9563997
vt 0.904884 0.9563997
vt 0.904884 0.8696873
vt 0.9522589 0.8696873
vt 0.9522589 0.9129214
vt 0.904884 0.9129214
vt 0.952503 0.9131656
vt 0.9998779 0.9131656
vt 0.9998779 0.9563997
vt 0.952503 0.9563997
vt 0.8096459 0.0001220703
vt 0.8570208 0.0001220703
vt 0.8570208 0.04335619
vt 0.8096459 0.04335619
vt 0.1905983 0.2175134
vt 0.2379732 0.2175134
vt 0.2379732 0.2607475
vt 0.1905983 0.2607475

# Normal
vn 0 0 -1

# Groups (Count = 4)

g mesh_0001
f 1/1/1 2/2/1 3/3/1 4/4/1
f 2/5/1 5/6/1 6/7/1 3/8/1
f 5/5/1 7/6/1 8/7/1 6/8/1
f 7/9/1 9/10/1 10/11/1 8/12/1
f 9/1/1 11/2/1 12/3/1 10/4/1
f 11/9/1 13/10/1 14/11/1 12/12/1
f 13/1/1 15/2/1 16/3/1 14/4/1
f 15/5/1 17/6/1 18/7/1 16/8/1
f 17/5/1 19/6/1 20/7/1 18/8/1
f 19/1/1 21/2/1 22/3/1 20/4/1
f 21/1/1 23/2/1 24/3/1 22/4/1
f 23/1/1 25/2/1 26/3/1 24/4/1
f 25/9/1 27/10/1 28/11/1 26/12/1
f 27/1/1 29/2/1 30/3/1 28/4/1
f 29/5/1 31/6/1 32/7/1 30/8/1
f 31/9/1 33/10/1 34/11/1 32/12/1
f 33/9/1 35/10/1 36/11/1 34/12/1
f 35/9/1 37/10/1 38/11/1 36/12/1
f 37/5/1 39/6/1 40/7/1 38/8/1
f 39/1/1 41/2/1 42/3/1 40/4/1
f 43/5/1 44/6/1 2/7/1 1/8/1
f 44/1/1 45/2/1 5/3/1 2/4/1
f 45/1/1 46/2/1 7/3/1 5/4/1
f 46/5/1 47/6/1 9/7/1 7/8/1
f 47/1/1 48/2/1 11/3/1 9/4/1
f 48/9/1 49/10/1 13/11/1 11/12/1
f 49/1/1 50/2/1 15/3/1 13/4/1
f 50/5/1 51/6/1 17/7/1 15/8/1
f 51/5/1 52/6/1 19/7/1 17/8/1
f 52/1/1 53/2/1 21/3/1 19/4/1
f 53/1/1 54/2/1 23/3/1 21/4/1
f 54/9/1 55/10/1 25/11/1 23/12/1
f 55/9/1 56/10/1 27/11/1 25/12/1
f 56/9/1 57/10/1 29/11/1 27/12/1
f 57/9/1 58/10/1 31/11/1 29/12/1
f 58/9/1 59/10/1 33/11/1 31/12/1
f 59/9/1 60/10/1 35/11/1 33/12/1
f 60/1/1 61/2/1 37/3/1 35/4/1
f 61/9/1 62/10/1 39/11/1 37/12/1
f 62/9/1 63/10/1 41/11/1 39/12/1
f 64/1/1 65/2/1 44/3/1 43/4/1
f 65/1/1 66/2/1 45/3/1 44/4/1
f 66/5/1 67/6/1 46/7/1 45/8/1
f 67/1/1 68/2/1 47/3/1 46/4/1
f 68/5/1 69/6/1 48/7/1 47/8/1
f 69/9/1 70/10/1 49/11/1 48/12/1
f 70/9/1 71/10/1 50/11/1 49/12/1
f 71/9/1 72/10/1 51/11/1 50/12/1
f 72/5/1 73/6/1 52/7/1 51/8/1
f 73/9/1 74/10/1 53/11/1 52/12/1
f 74/5/1 75/6/1 54/7/1 53/8/1
f 75/5/1 76/6/1 55/7/1 54/8/1
f 76/9/1 77/10/1 56/11/1 55/12/1
f 77/1/1 78/2/1 57/3/1 56/4/1
f 78/9/1 79/10/1 58/11/1 57/12/1
f 79/5/1 80/6/1 59/7/1 58/8/1
f 80/5/1 81/6/1 60/7/1 59/8/1
f 81/1/1 82/2/1 61/3/1 60/4/1
f 82/5/1 83/6/1 62/7/1 61/8/1
f 83/5/1 84/6/1 63/7/1 62/8/1
f 85/9/1 86/10/1 65/11/1 64/12/1
f 86/5/1 87/6/1 66/7/1 65/8/1
f 87/1/1 88/2/1 67/3/1 66/4/1
f 88/5/1 89/6/1 68/7/1 67/8/1
f 89/1/1 90/2/1 69/3/1 68/4/1
f 90/5/1 91/6/1 70/7/1 69/8/1
f 91/9/1 92/10/1 71/11/1 70/12/1
f 92/5/1 93/6/1 72/7/1 71/8/1
f 93/9/1 94/10/1 73/11/1 72/12/1
f 94/5/1 95/6/1 74/7/1 73/8/1
f 95/5/1 96/6/1 75/7/1 74/8/1
f 96/9/1 97/10/1 76/11/1 75/12/1
f 97/5/1 98/6/1 77/7/1 76/8/1
f 98/5/1 99/6/1 78/7/1 77/8/1
f 99/1/1 100/2/1 79/3/1 78/4/1
f 100/5/1 101/6/1 80/7/1 79/8/1
f 101/5/1 102/6/1 81/7/1 80/8/1
f 102/5/1 103/6/1 82/7/1 81/8/1
f 103/9/1 104/10/1 83/11/1 82/12/1
f 104/9/1 105/10/1 84/11/1 83/12/1
f 106/1/1 107/2/1 86/3/1 85/4/1
f 107/9/1 108/10/1 87/11/1 86/12/1
f 108/5/1 109/6/1 88/7/1 87/8/1
f 109/1/1 110/2/1 89/3/1 88/4/1
f 110/9/1 111/10/1 90/11/1 89/12/1
f 111/5/1 112/6/1 91/7/1 90/8/1
f 112/5/1 113/6/1 92/7/1 91/8/1
f 113/1/1 114/2/1 93/3/1 92/4/1
f 114/9/1 115/10/1 94/11/1 93/12/1
f 115/1/1 116/2/1 95/3/1 94/4/1
f 116/9/1 117/10/1 96/11/1 95/12/1
f 117/1/1 118/2/1 97/3/1 96/4/1
f 118/9/1 119/10/1 98/11/1 97/12/1
f 119/1/1 120/2/1 99/3/1 98/4/1
f 120/1/1 121/2/1 100/3/1 99/4/1
f 121/1/1 122/2/1 101/3/1 100/4/1
f 122/1/1 123/2/1 102/3/1 101/4/1
f 123/9/1 124/10/1 103/11/1 102/12/1
f 124/5/1 125/6/1 104/7/1 103/8/1
f 125/9/1 126/10/1 105/11/1 104/12/1
f 127/5/1 128/6/1 107/7/1 106/8/1
f 128/5/1 129/6/1 108/7/1 107/8/1
f 129/1/1 130/2/1 109/3/1 108/4/1
f 130/9/1 131/10/1 110/11/1 109/12/1
f 131/1/1 132/2/1 111/3/1 110/4/1
f 132/5/1 133/6/1 112/7/1 111/8/1
f 133/5/1 134/6/1 113/7/1 112/8/1
f 134/1/1 135/2/1 114/3/1 113/4/1
f 135/9/1 136/10/1 115/11/1 114/12/1
f 136/9/1 137/10/1 116/11/1 115/12/1
f 137/5/1 138/6/1 117/7/1 116/8/1
f 138/1/1 139/2/1 118/3/1 117/4/1
f 139/5/1 140/6/1 119/7/1 118/8/1
f 140/1/1 141/2/1 120/3/1 119/4/1
f 141/9/1 142/10/1 121/11/1 120/12/1
f 142/1/1 143/2/1 122/3/1 121/4/1
f 143/9/1 144/10/1 123/11/1 122/12/1
f 144/5/1 145/6/1 124/7/1 123/8/1
f 145/9/1 146/10/1 125/11/1 124/12/1
f 146/1/1 147/2/1 126/3/1 125/4/1
f 148/1/1 149/2/1 128/3/1 127/4/1
f 149/1/1 150/2/1 129/3/1 128/4/1
f 150/5/1 151/6/1 130/7/1 129/8/1
f 151/9/1 152/10/1 131/11/1 130/12/1
f 152/9/1 153/10/1 132/11/1 131/12/1
f 153/1/1 154/2/1 133/3/1 132/4/1
f 154/9/1 155/10/1 134/11/1 133/12/1
f 155/1/1 156/2/1 135/3/1 134/4/1
f 156/9/1 157/10/1 136/11/1 135/12/1
f 157/1/1 158/2/1 137/3/1 136/4/1
f 158/5/1 159/6/1 138/7/1 137/8/1
f 159/1/1 160/2/1 139/3/1 138/4/1
f 160/1/1 161/2/1 140/3/1 139/4/1
f 161/1/1 162/2/1 141/3/1 140/4/1
f 162/9/1 163/10/1 142/11/1 141/12/1
f 163/5/1 164/6/1 143/7/1 142/8/1
f 164/5/1 165/6/1 144/7/1 143/8/1
f 165/5/1 166/6/1 145/7/1 144/8/1
f 166/1/1 167/2/1 146/3/1 145/4/1
f 167/5/1 168/6/1 147/7/1 146/8/1
f 169/5/1 170/6/1 149/7/1 148/8/1
f 170/9/1 171/10/1 150/11/1 149/12/1
f 171/1/1 172/2/1 151/3/1 150/4/1
f 172/1/1 173/2/1 152/3/1 151/4/1
f 173/5/1 174/6/1 153/7/1 152/8/1
f 174/9/1 175/10/1 154/11/1 153/12/1
f 175/5/1 176/6/1 155/7/1 154/8/1
f 176/9/1 177/10/1 156/11/1 155/12/1
f 177/5/1 178/6/1 157/7/1 156/8/1
f 178/1/1 179/2/1 158/3/1 157/4/1
f 179/9/1 180/10/1 159/11/1 158/12/1
f 180/1/1 181/2/1 160/3/1 159/4/1
f 181/9/1 182/10/1 161/11/1 160/12/1
f 182/5/1 183/6/1 162/7/1 161/8/1
f 183/1/1 184/2/1 163/3/1 162/4/1
f 184/5/1 185/6/1 164/7/1 163/8/1
f 185/5/1 186/6/1 165/7/1 164/8/1
f 186/1/1 187/2/1 166/3/1 165/4/1
f 187/1/1 188/2/1 167/3/1 166/4/1
f 188/1/1 189/2/1 168/3/1 167/4/1
f 190/5/1 191/6/1 170/7/1 169/8/1
f 191/5/1 192/6/1 171/7/1 170/8/1
f 192/1/1 193/2/1 172/3/1 171/4/1
f 193/5/1 194/6/1 173/7/1 172/8/1
f 194/1/1 195/2/1 174/3/1 173/4/1
f 195/1/1 196/2/1 175/3/1 174/4/1
f 196/9/1 197/10/1 176/11/1 175/12/1
f 197/1/1 198/2/1 177/3/1 176/4/1
f 198/9/1 199/10/1 178/11/1 177/12/1
f 199/5/1 200/6/1 179/7/1 178/8/1
f 200/5/1 201/6/1 180/7/1 179/8/1
f 201/5/1 202/6/1 181/7/1 180/8/1
f 202/9/1 203/10/1 182/11/1 181/12/1
f 203/9/1 204/10/1 183/11/1 182/12/1
f 204/1/1 205/2/1 184/3/1 183/4/1
f 205/5/1 206/6/1 185/7/1 184/8/1
f 206/5/1 207/6/1 186/7/1 185/8/1
f 207/1/1 208/2/1 187/3/1 186/4/1
f 208/5/1 209/6/1 188/7/1 187/8/1
f 209/5/1 210/6/1 189/7/1 188/8/1
f 211/5/1 212/6/1 191/7/1 190/8/1
f 212/9/1 213/10/1 192/11/1 191/12/1
f 213/1/1 214/2/1 193/3/1 192/4/1
f 214/9/1 215/10/1 194/11/1 193/12/1
f 215/5/1 216/6/1 195/7/1 194/8/1
f 216/1/1 217/2/1 196/3/1 195/4/1
f 217/5/1 218/6/1 197/7/1 196/8/1
f 218/9/1 219/10/1 198/11/1 197/12/1
f 219/1/1 220/2/1 199/3/1 198/4/1
f 220/1/1 221/2/1 200/3/1 199/4/1
f 221/5/1 222/6/1 201/7/1 200/8/1
f 222/1/1 223/2/1 202/3/1 201/4/1
f 223/5/1 224/6/1 203/7/1 202/8/1
f 224/1/1 225/2/1 204/3/1 203/4/1
f 225/5/1 226/6/1 205/7/1 204/8/1
f 226/5/1 227/6/1 206/7/1 205/8/1
f 227/9/1 228/10/1 207/11/1 206/12/1
f 228/9/1 229/10/1 208/11/1 207/12/1
f 229/9/1 230/10/1 209/11/1 208/12/1
f 230/5/1 231/6/1 210/7/1 209/8/1
f 232/1/1 233/2/1 212/3/1 211/4/1
f 233/1/1 234/2/1 213/3/1 212/4/1
f 234/1/1 235/2/1 214/3/1 213/4/1
f 235/1/1 236/2/1 215/3/1 214/4/1
f 236/9/1 237/10/1 216/11/1 215/12/1
f 237/5/1 238/6/1 217/7/1 216/8/1
f 238/1/1 239/2/1 218/3/1 217/4/1
f 239/1/1 240/2/1 219/3/1 218/4/1
f 240/5/1 241/6/1 220/7/1 219/8/1
f 241/1/1 242/2/1 221/3/1 220/4/1
f 242/5/1 243/6/1 222/7/1 221/8/1
f 243/1/1 244/2/1 223/3/1 222/4/1
f 244/5/1 245/6/1 224/7/1 223/8/1
f 245/5/1 246/6/1 225/7/1 224/8/1
f 246/1/1 247/2/1 226/3/1 225/4/1
f 247/9/1 248/10/1 227/11/1 226/12/1
f 248/5/1 249/6/1 228/7/1 227/8/1
f 249/1/1 250/2/1 229/3/1 228/4/1
f 250/5/1 251/6/1 230/7/1 229/8/1
f 251/9/1 252/10/1 231/11/1 230/12/1
f 253/1/1 254/2/1 233/3/1 232/4/1
f 254/5/1 255/6/1 234/7/1 233/8/1
f 255/9/1 256/10/1 235/11/1 234/12/1
f 256/1/1 257/2/1 236/3/1 235/4/1
f 257/5/1 258/6/1 237/7/1 236/8/1
f 258/9/1 259/10/1 238/11/1 237/12/1
f 259/9/1 260/10/1 239/11/1 238/12/1
f 260/9/1 261/10/1 240/11/1 239/12/1
f 261/5/1 262/6/1 241/7/1 240/8/1
f 262/5/1 263/6/1 242/7/1 241/8/1
f 263/5/1 264/6/1 243/7/1 242/8/1
f 264/1/1 265/2/1 244/3/1 243/4/1
f 265/1/1 266/2/1 245/3/1 244/4/1
f 266/5/1 267/6/1 246/7/1 245/8/1
f 267/1/1 268/2/1 247/3/1 246/4/1
f 268/5/1 269/6/1 248/7/1 247/8/1
f 269/5/1 270/6/1 249/7/1 248/8/1
f 270/9/1 271/10/1 250/11/1 249/12/1
f 271/1/1 272/2/1 251/3/1 250/4/1
f 272/9/1 273/10/1 252/11/1 251/12/1
f 274/9/1 275/10/1 254/11/1 253/12/1
f 275/5/1 276/6/1 255/7/1 254/8/1
f 276/9/1 277/10/1 256/11/1 255/12/1
f 277/1/1 278/2/1 257/3/1 256/4/1
f 278/5/1 279/6/1 258/7/1 257/8/1
f 279/5/1 280/6/1 259/7/1 258/8/1
f 280/1/1 281/2/1 260/3/1 259/4/1
f 281/9/1 282/10/1 261/11/1 260/12/1
f 282/5/1 283/6/1 262/7/1 261/8/1
f 283/5/1 284/6/1 263/7/1 262/8/1
f 284/9/1 285/10/1 264/11/1 263/12/1
f 285/9/1 286/10/1 265/11/1 264/12/1
f 286/5/1 287/6/1 266/7/1 265/8/1
f 287/5/1 288/6/1 267/7/1 266/8/1
f 288/5/1 289/6/1 268/7/1 267/8/1
f 289/9/1 290/10/1 269/11/1 268/12/1
f 290/9/1 291/10/1 270/11/1 269/12/1
f 291/9/1 292/10/1 271/11/1 270/12/1
f 292/5/1 293/6/1 272/7/1 271/8/1
f 293/9/1 294/10/1 273/11/1 272/12/1
f 295/1/1 296/2/1 275/3/1 274/4/1
f 296/9/1 297/10/1 276/11/1 275/12/1
f 297/5/1 298/6/1 277/7/1 276/8/1
f 298/9/1 299/10/1 278/11/1 277/12/1
f 299/1/1 300/2/1 279/3/1 278/4/1
f 300/9/1 301/10/1 280/11/1 279/12/1
f 301/1/1 302/2/1 281/3/1 280/4/1
f 302/9/1 303/10/1 282/11/1 281/12/1
f 303/1/1 304/2/1 283/3/1 282/4/1
f 304/1/1 305/2/1 284/3/1 283/4/1
f 305/5/1 306/6/1 285/7/1 284/8/1
f 306/9/1 307/10/1 286/11/1 285/12/1
f 307/1/1 308/2/1 287/3/1 286/4/1
f 308/1/1 309/2/1 288/3/1 287/4/1
f 309/1/1 310/2/1 289/3/1 288/4/1
f 310/1/1 311/2/1 290/3/1 289/4/1
f 311/1/1 312/2/1 291/3/1 290/4/1
f 312/9/1 313/10/1 292/11/1 291/12/1
f 313/9/1 314/10/1 293/11/1 292/12/1
f 314/5/1 315/6/1 294/7/1 293/8/1
f 316/5/1 317/6/1 296/7/1 295/8/1
f 317/9/1 318/10/1 297/11/1 296/12/1
f 318/9/1 319/10/1 298/11/1 297/12/1
f 319/1/1 320/2/1 299/3/1 298/4/1
f 320/1/1 321/2/1 300/3/1 299/4/1
f 321/5/1 322/6/1 301/7/1 300/8/1
f 322/9/1 323/10/1 302/11/1 301/12/1
f 323/1/1 324/2/1 303/3/1 302/4/1
f 324/1/1 325/2/1 304/3/1 303/4/1
f 325/9/1 326/10/1 305/11/1 304/12/1
f 326/1/1 327/2/1 306/3/1 305/4/1
f 327/1/1 328/2/1 307/3/1 306/4/1
f 328/9/1 329/10/1 308/11/1 307/12/1
f 329/9/1 330/10/1 309/11/1 308/12/1
f 330/9/1 331/10/1 310/11/1 309/12/1
f 331/9/1 332/10/1 311/11/1 310/12/1
f 332/9/1 333/10/1 312/11/1 311/12/1
f 333/5/1 334/6/1 313/7/1 312/8/1
f 334/1/1 335/2/1 314/3/1 313/4/1
f 335/9/1 336/10/1 315/11/1 314/12/1
f 337/1/1 338/2/1 317/3/1 316/4/1
f 338/9/1 339/10/1 318/11/1 317/12/1
f 339/1/1 340/2/1 319/3/1 318/4/1
f 340/9/1 341/10/1 320/11/1 319/12/1
f 341/1/1 342/2/1 321/3/1 320/4/1
f 342/1/1 343/2/1 322/3/1 321/4/1
f 343/9/1 344/10/1 323/11/1 322/12/1
f 344/1/1 345/2/1 324/3/1 323/4/1
f 345/5/1 346/6/1 325/7/1 324/8/1
f 346/5/1 347/6/1 326/7/1 325/8/1
f 347/9/1 348/10/1 327/11/1 326/12/1
f 348/9/1 349/10/1 328/11/1 327/12/1
f 349/1/1 350/2/1 329/3/1 328/4/1
f 350/5/1 351/6/1 330/7/1 329/8/1
f 351/1/1 352/2/1 331/3/1 330/4/1
f 352/5/1 353/6/1 332/7/1 331/8/1
f 353/5/1 354/6/1 333/7/1 332/8/1
f 354/1/1 355/2/1 334/3/1 333/4/1
f 355/5/1 356/6/1 335/7/1 334/8/1
f 356/9/1 357/10/1 336/11/1 335/12/1
f 358/9/1 359/10/1 338/11/1 337/12/1
f 359/9/1 360/10/1 339/11/1 338/12/1
f 360/5/1 361/6/1 340/7/1 339/8/1
f 361/5/1 362/6/1 341/7/1 340/8/1
f 362/1/1 363/2/1 342/3/1 341/4/1
f 363/5/1 364/6/1 343/7/1 342/8/1
f 364/1/1 365/2/1 344/3/1 343/4/1
f 365/5/1 366/6/1 345/7/1 344/8/1
f 366/1/1 367/2/1 346/3/1 345/4/1
f 367/9/1 368/10/1 347/11/1 346/12/1
f 368/1/1 369/2/1 348/3/1 347/4/1
f 369/9/1 370/10/1 349/11/1 348/12/1
f 370/5/1 371/6/1 350/7/1 349/8/1
f 371/5/1 372/6/1 351/7/1 350/8/1
f 372/5/1 373/6/1 352/7/1 351/8/1
f 373/5/1 374/6/1 353/7/1 352/8/1
f 374/1/1 375/2/1 354/3/1 353/4/1
f 375/1/1 376/2/1 355/3/1 354/4/1
f 376/5/1 377/6/1 356/7/1 355/8/1
f 377/5/1 378/6/1 357/7/1 356/8/1
f 379/5/1 380/6/1 359/7/1 358/8/1
f 380/9/1 381/10/1 360/11/1 359/12/1
f 381/5/1 382/6/1 361/7/1 360/8/1
f 382/9/1 383/10/1 362/11/1 361/12/1
f 383/9/1 384/10/1 363/11/1 362/12/1
f 384/9/1 385/10/1 364/11/1 363/12/1
f 385/5/1 386/6/1 365/7/1 364/8/1
f 386/1/1 387/2/1 366/3/1 365/4/1
f 387/1/1 388/2/1 367/3/1 366/4/1
f 388/1/1 389/2/1 368/3/1 367/4/1
f 389/5/1 390/6/1 369/7/1 368/8/1
f 390/1/1 391/2/1 370/3/1 369/4/1
f 391/9/1 392/10/1 371/11/1 370/12/1
f 392/1/1 393/2/1 372/3/1 371/4/1
f 393/9/1 394/10/1 373/11/1 372/12/1
f 394/9/1 395/10/1 374/11/1 373/12/1
f 395/1/1 396/2/1 375/3/1 374/4/1
f 396/1/1 397/2/1 376/3/1 375/4/1
f 397/9/1 398/10/1 377/11/1 376/12/1
f 398/5/1 399/6/1 378/7/1 377/8/1
f 400/1/1 401/2/1 380/3/1 379/4/1
f 401/9/1 402/10/1 381/11/1 380/12/1
f 402/5/1 403/6/1 382/7/1 381/8/1
f 403/9/1 404/10/1 383/11/1 382/12/1
f 404/9/1 405/10/1 384/11/1 383/12/1
f 405/9/1 406/10/1 385/11/1 384/12/1
f 406/1/1 407/2/1 386/3/1 385/4/1
f 407/5/1 408/6/1 387/7/1 386/8/1
f 408/9/1 409/10/1 388/11/1 387/12/1
f 409/5/1 410/6/1 389/7/1 388/8/1
f 410/5/1 411/6/1 390/7/1 389/8/1
f 411/5/1 412/6/1 391/7/1 390/8/1
f 412/1/1 413/2/1 392/3/1 391/4/1
f 413/9/1 414/10/1 393/11/1 392/12/1
f 414/5/1 415/6/1 394/7/1 393/8/1
f 415/9/1 416/10/1 395/11/1 394/12/1
f 416/9/1 417/10/1 396/11/1 395/12/1
f 417/9/1 418/10/1 397/11/1 396/12/1
f 418/1/1 419/2/1 398/3/1 397/4/1
f 419/5/1 420/6/1 399/7/1 398/8/1
f 421/9/1 422/10/1 401/11/1 400/12/1
f 422/9/1 423/10/1 402/11/1 401/12/1
f 423/5/1 424/6/1 403/7/1 402/8/1
f 424/9/1 425/10/1 404/11/1 403/12/1
f 425/9/1 426/10/1 405/11/1 404/12/1
f 426/5/1 427/6/1 406/7/1 405/8/1
f 427/5/1 428/6/1 407/7/1 406/8/1
f 428/5/1 429/6/1 408/7/1 407/8/1
f 429/1/1 430/2/1 409/3/1 408/4/1
f 430/9/1 431/10/1 410/11/1 409/12/1
f 431/1/1 432/2/1 411/3/1 410/4/1
f 432/1/1 433/2/1 412/3/1 411/4/1
f 433/5/1 434/6/1 413/7/1 412/8/1
f 434/9/1 435/10/1 414/11/1 413/12/1
f 435/9/1 436/10/1 415/11/1 414/12/1
f 436/9/1 437/10/1 416/11/1 415/12/1
f 437/9/1 438/10/1 417/11/1 416/12/1
f 438/9/1 439/10/1 418/11/1 417/12/1
f 439/5/1 440/6/1 419/7/1 418/8/1
f 440/9/1 441/10/1 420/11/1 419/12/1

g mesh_0002
f 1/13/1 2/14/1 3/15/1 4/16/1
f 2/17/1 5/18/1 6/19/1 3/20/1
f 5/17/1 7/18/1 8/19/1 6/20/1
f 7/17/1 9/18/1 10/19/1 8/20/1
f 9/17/1 11/18/1 12/19/1 10/20/1
f 11/17/1 13/18/1 14/19/1 12/20/1
f 13/17/1 15/18/1 16/19/1 14/20/1
f 15/17/1 17/18/1 18/19/1 16/20/1
f 17/17/1 19/18/1 20/19/1 18/20/1
f 19/17/1 21/18/1 22/19/1 20/20/1
f 21/17/1 23/18/1 24/19/1 22/20/1
f 23/17/1 25/18/1 26/19/1 24/20/1
f 25/17/1 27/18/1 28/19/1 26/20/1
f 27/17/1 29/18/1 30/19/1 28/20/1
f 29/17/1 31/18/1 32/19/1 30/20/1
f 31/17/1 33/18/1 34/19/1 32/20/1
f 33/17/1 35/18/1 36/19/1 34/20/1
f 35/17/1 37/18/1 38/19/1 36/20/1
f 37/17/1 39/18/1 40/19/1 38/20/1
f 39/21/1 41/22/1 42/23/1 40/24/1
f 43/25/1 44/26/1 2/27/1 1/28/1
f 62/29/1 63/30/1 41/31/1 39/32/1
f 64/25/1 65/26/1 44/27/1 43/28/1
f 83/29/1 84/30/1 63/31/1 62/32/1
f 85/25/1 86/26/1 65/27/1 64/28/1
f 104/29/1 105/30/1 84/31/1 83/32/1
f 106/25/1 107/26/1 86/27/1 85/28/1
f 125/29/1 126/30/1 105/31/1 104/32/1
f 127/25/1 128/26/1 107/27/1 106/28/1
f 146/29/1 147/30/1 126/31/1 125/32/1
f 148/25/1 149/26/1 128/27/1 127/28/1
f 167/29/1 168/30/1 147/31/1 146/32/1
f 169/25/1 170/26/1 149/27/1 148/28/1
f 188/29/1 189/30/1 168/31/1 167/32/1
f 190/25/1 191/26/1 170/27/1 169/28/1
f 209/29/1 210/30/1 189/31/1 188/32/1
f 211/25/1 212/26/1 191/27/1 190/28/1
f 230/29/1 231/30/1 210/31/1 209/32/1
f 232/25/1 233/26/1 212/27/1 211/28/1
f 251/29/1 252/30/1 231/31/1 230/32/1
f 253/25/1 254/26/1 233/27/1 232/28/1
f 272/29/1 273/30/1 252/31/1 251/32/1
f 274/25/1 275/26/1 254/27/1 253/28/1
f 293/29/1 294/30/1 273/31/1 272/32/1
f 295/25/1 296/26/1 275/27/1 274/28/1
f 314/29/1 315/30/1 294/31/1 293/32/1
f 316/25/1 317/26/1 296/27/1 295/28/1
f 335/29/1 336/30/1 315/31/1 314/32/1
f 337/25/1 338/26/1 317/27/1 316/28/1
f 356/29/1 357/30/1 336/31/1 335/32/1
f 358/25/1 359/26/1 338/27/1 337/28/1
f 377/29/1 378/30/1 357/31/1 356/32/1
f 379/25/1 380/26/1 359/27/1 358/28/1
f 398/29/1 399/30/1 378/31/1 377/32/1
f 400/25/1 401/26/1 380/27/1 379/28/1
f 419/29/1 420/30/1 399/31/1 398/32/1
f 421/33/1 422/34/1 401/35/1 400/36/1
f 422/37/1 423/38/1 402/39/1 401/40/1
f 423/37/1 424/38/1 403/39/1 402/40/1
f 424/37/1 425/38/1 404/39/1 403/40/1
f 425/37/1 426/38/1 405/39/1 404/40/1
f 426/37/1 427/38/1 406/39/1 405/40/1
f 427/37/1 428/38/1 407/39/1 406/40/1
f 428/37/1 429/38/1 408/39/1 407/40/1
f 429/37/1 430/38/1 409/39/1 408/40/1
f 430/37/1 431/38/1 410/39/1 409/40/1
f 431/37/1 432/38/1 411/39/1 410/40/1
f 432/37/1 433/38/1 412/39/1 411/40/1
f 433/37/1 434/38/1 413/39/1 412/40/1
f 434/37/1 435/38/1 414/39/1 413/40/1
f 435/37/1 436/38/1 415/39/1 414/40/1
f 436/37/1 437/38/1 416/39/1 415/40/1
f 437/37/1 438/38/1 417/39/1 416/40/1
f 438/37/1 439/38/1 418/39/1 417/40/1
f 439/37/1 440/38/1 419/39/1 418/40/1
f 440/41/1 441/42/1 420/43/1 419/44/1

g mesh_0003
f 221/45/1 222/46/1 201/47/1 200/48/1

g mesh_0004
f 221/49/1 222/50/1 201/51/1 200/52/1

